<svg width="16" height="16" viewBox="0 0 16 16" fill="none" xmlns="http://www.w3.org/2000/svg">
<path d="M2.41426 5.0357L2.41424 5.03572L2.41706 5.03847L7.76706 10.2635L8.00107 10.492L8.234 10.2624L13.584 4.98736L13.584 4.98737L13.5857 4.9857C13.6805 4.89088 13.8194 4.89088 13.9143 4.9857C14.0088 5.08025 14.0091 5.21865 13.9151 5.31346C13.9148 5.31374 13.9145 5.31402 13.9143 5.3143L8.16634 10.9622L8.16633 10.9622L8.16426 10.9643C8.06795 11.0606 8.02309 11.0667 7.99996 11.0667C7.94104 11.0667 7.88999 11.0522 7.82022 10.9991L2.08484 5.36346C1.99084 5.26866 1.99112 5.13025 2.08567 5.0357C2.18049 4.94088 2.31944 4.94088 2.41426 5.0357Z" fill="#637381" stroke="#637381" stroke-width="0.666667"/>
</svg>
